<svg xmlns="http://www.w3.org/2000/svg" viewBox="0 0 807.5 347.24"><defs><style>.cls-1{fill:#33e987;}.cls-2{fill:#fce444;}.cls-3{fill:#f66db3;}.cls-4{fill:#00afaa;}.cls-5{fill:#d35e13;}</style></defs><title>Logo</title><g id="Layer_2" data-name="Layer 2"><g id="Layer_1-2" data-name="Layer 1"><path d="M121.24,217.12q-12.45-12.62-12.45-33.21T121.56,151A42.45,42.45,0,0,1,152,138.75q17.68,0,28.48,14.94V105.2h18.6V228.41h-18.6V215.13q-10.3,14.61-30.06,14.61-16.77,0-29.22-12.62m6.14-32.46q0,12.7,8.13,20.67a26.4,26.4,0,0,0,19.1,8,24.65,24.65,0,0,0,18.6-8.06q7.63-8,7.64-20.67t-7.64-21.09A24.3,24.3,0,0,0,154.44,155a25.32,25.32,0,0,0-19.1,8.47q-8,8.47-8,21.17"/><path d="M324.81,192.38H255.57a20.11,20.11,0,0,0,8.8,15.52A30.89,30.89,0,0,0,283,213.8q16.6,0,25.24-10.46L318.83,215q-14.28,14.78-37.19,14.78-18.6,0-31.63-12.37t-13-33.21q0-20.84,13.28-33.13a44.59,44.59,0,0,1,31.3-12.29q18,0,30.64,10.88t12.62,30Zm-69.24-14.61h50.64q0-11.13-7-17.1t-17.19-6a29.41,29.41,0,0,0-18.35,6.23,20.11,20.11,0,0,0-8.13,16.86"/><path d="M401,229.74a44.6,44.6,0,0,1-31.71-12.54Q356,204.67,356,184.41t13.86-33q13.86-12.7,33.79-12.7t33.71,13.78l-11,13.45Q415,156,403.35,156a29.13,29.13,0,0,0-20.18,7.72q-8.55,7.72-8.55,19.93a28.92,28.92,0,0,0,29.31,29.14q12.37,0,23.33-11.29l11,12q-16.1,16.28-37.19,16.27"/><path d="M546.15,216.54q-13.28,13.2-33.21,13.2t-33.21-13.2q-13.28-13.2-13.28-32.29t13.28-32.3q13.28-13.2,33.21-13.2t33.21,13.2a45.9,45.9,0,0,1,0,64.59m-53.22-11.46q7.89,8.06,20,8.05t20-8.05q7.88-8.05,7.89-20.84t-7.89-20.84q-7.89-8.06-20-8.05t-20,8.05Q485,171.46,485,184.24t7.89,20.84"/><path d="M603.93,217.12q-12.45-12.62-12.45-33.21T604.26,151a42.45,42.45,0,0,1,30.47-12.29q17.68,0,28.47,14.94V105.2h18.6V228.41h-18.6V215.13q-10.3,14.61-30.05,14.61-16.77,0-29.22-12.62m6.14-32.46q0,12.7,8.14,20.67a26.39,26.39,0,0,0,19.09,8,24.65,24.65,0,0,0,18.6-8.06q7.64-8,7.64-20.67t-7.64-21.09A24.3,24.3,0,0,0,637.14,155a25.32,25.32,0,0,0-19.1,8.47q-8,8.47-8,21.17"/><path d="M807.5,192.38H738.26a20.11,20.11,0,0,0,8.8,15.52,30.89,30.89,0,0,0,18.6,5.89q16.6,0,25.24-10.46L801.52,215q-14.28,14.78-37.19,14.78-18.6,0-31.63-12.37t-13-33.21q0-20.84,13.28-33.13a44.59,44.59,0,0,1,31.3-12.29q18,0,30.64,10.88t12.62,30Zm-69.24-14.61h50.64q0-11.13-7-17.1t-17.19-6a29.41,29.41,0,0,0-18.35,6.23,20.11,20.11,0,0,0-8.13,16.86"/><rect class="cls-1" x="102.27" y="273.01" width="37.12" height="37.12"/><rect class="cls-2" y="111.35" width="37.12" height="37.12"/><rect class="cls-3" x="770.39" width="37.12" height="37.12"/><rect class="cls-4" x="139.39" y="310.12" width="334.05" height="37.12"/><rect class="cls-5" x="473.45" y="273.01" width="334.06" height="37.12"/></g></g></svg>