<?xml version="1.0" encoding="utf-8"?>
<!-- Generator: Adobe Illustrator 15.0.0, SVG Export Plug-In . SVG Version: 6.00 Build 0)  -->
<!DOCTYPE svg PUBLIC "-//W3C//DTD SVG 1.1//EN" "http://www.w3.org/Graphics/SVG/1.1/DTD/svg11.dtd">
<svg version="1.1" id="Layer_1" xmlns="http://www.w3.org/2000/svg" xmlns:xlink="http://www.w3.org/1999/xlink" x="0px" y="0px"
	 width="581.8px" height="117px" viewBox="0 0 581.8 117" enable-background="new 0 0 581.8 117" xml:space="preserve">
<g>
	<path fill="#3E454C" d="M179.1,95h-6.9L148,34.1V95h-9.9V22.9h15.7l21.9,56.3L198,22.9h15.7V95h-9.9V34.1L179.1,95z"/>
	<path fill="#3E454C" d="M230.6,95V22.9h9.9V95H230.6z"/>
	<path fill="#3E454C" d="M257.5,95V22.9h9.9v63.2h31.301V95H257.5z"/>
	<path fill="#3E454C" d="M354,95L348.3,79.7h-30.7L312.1,95h-10.8l27.9-72.1h8.699L365.4,95H354z M321,70.8h24.201L333.1,37.9H333
		L321,70.8z"/>
	<path fill="#3E454C" d="M408.6,63.9V55h28.2v27.4c-6.9,8.8-17.7,13.8-29.6,13.8c-22,0-38.701-14.9-38.701-37.3
		c0-21.3,17.4-37.3,38.701-37.3c11.1,0,21,4.9,27.898,12.8l-7,5.8c-5-5.7-12.699-9.7-20.898-9.7C391,30.5,379,42.5,379,58.9
		c0,17.5,11.701,28.4,28.201,28.4c7.6,0,14.6-2.7,19.699-7.5v-16h-18.3V63.9z"/>
	<path fill="#3E454C" d="M491.201,95l-21.602-30.5h-7.398V95h-9.9V22.9h21.4c11,0,24.6,5.8,24.6,20.7c0,12.3-8.801,18.4-17.6,20.3
		L503.599,95H491.201z M473.201,31.8h-11v23.9h9c9.6,0,16.699-3.5,16.699-11.7C487.8,36.6,481.9,31.8,473.201,31.8z"/>
	<path fill="#3E454C" d="M544.8,96.2c-21,0-37.1-16.7-37.1-37.3s16.1-37.3,37.1-37.3s37.1,16.7,37.1,37.3
		C581.8,79.5,565.8,96.2,544.8,96.2z M544.8,30.5c-15.301,0-26.6,12.5-26.6,28.4s11.199,28.4,26.6,28.4s26.6-12.5,26.6-28.4
		S560.099,30.5,544.8,30.5z"/>
</g>
<g>
	<path fill="#C2FF17" d="M85.9,105.4L1.8,66.2C0.7,65.7,0,64.6,0,63.4v-49c0-2.3,2.4-3.8,4.4-2.8l84.1,39.2c1.1,0.5,1.8,1.6,1.8,2.8
		v49C90.3,104.9,88,106.4,85.9,105.4z"/>
	<g>
		<path fill="#31BCA4" d="M88.8,52.3L0,93.7v20.2c0,2.3,2.4,3.8,4.4,2.8l84.1-39.2c1.1-0.5,1.8-1.6,1.8-2.8V53.6
			c0-0.7-0.2-1.3-0.5-1.8l0,0l0,0l0,0l0,0c-0.2-0.4-0.6-0.6-1-0.9c0.2,0.2,0.3,0.4,0.3,0.7C89.1,51.9,89,52.1,88.8,52.3z"/>
	</g>
	<g>
		<path fill="#40D37B" d="M1.6,64.7l88.8-41.4V3.1c0-2.3-2.4-3.8-4.4-2.8L1.8,39.5C0.7,40,0,41.1,0,42.3V63.4
			c0,0.699,0.2,1.3,0.5,1.8l0,0l0,0l0,0l0,0c0.2,0.399,0.6,0.6,1,0.899C1.3,65.9,1.2,65.7,1.2,65.4C1.2,65.1,1.3,64.9,1.6,64.7z"/>
	</g>
</g>
</svg>
